<?xml version="1.0" standalone="no"?>
<!DOCTYPE svg PUBLIC "-//W3C//DTD SVG 20010904//EN"
 "http://www.w3.org/TR/2001/REC-SVG-20010904/DTD/svg10.dtd">
<svg version="1.0" xmlns="http://www.w3.org/2000/svg"
 width="72.000000pt" height="51.000000pt" viewBox="0 0 72.000000 51.000000"
 preserveAspectRatio="xMidYMid meet">
<metadata>
Created by potrace 1.16, written by Peter Selinger 2001-2019
</metadata>
<g transform="translate(0.000000,51.000000) scale(0.100000,-0.100000)"
fill="#000000" stroke="none">
<path d="M0 255 l0 -255 360 0 360 0 0 255 0 255 -360 0 -360 0 0 -255z m495
215 c-3 -5 0 -10 9 -10 8 0 16 3 19 8 2 4 2 1 1 -5 -2 -7 7 -19 19 -28 20 -14
21 -15 2 -16 -11 -1 -28 0 -38 0 -9 1 -20 -5 -23 -14 -5 -11 -10 -13 -19 -5
-10 8 -13 6 -11 -7 0 -10 -5 -17 -11 -15 -7 1 -13 -6 -13 -15 0 -15 -2 -15 -9
-4 -6 9 -5 19 2 27 31 35 37 44 37 59 0 9 4 14 9 11 5 -3 11 1 15 9 3 8 8 15
11 15 4 0 3 -4 0 -10z m152 -62 c-3 -7 -5 -2 -5 12 0 14 2 19 5 13 2 -7 2 -19
0 -25z m-257 -18 c0 -5 -5 -10 -11 -10 -5 0 -7 5 -4 10 3 6 8 10 11 10 2 0 4
-4 4 -10z m168 3 c-10 -2 -18 -9 -18 -14 0 -5 -5 -9 -11 -9 -8 0 -8 5 1 15 7
8 20 14 29 14 13 -1 13 -2 -1 -6z m-161 -38 c0 -8 -2 -13 -5 -10 -2 2 -11 -3
-19 -11 -9 -8 -18 -12 -21 -9 -5 5 28 43 39 44 3 1 6 -6 6 -14z m113 1 c0 -10
-7 -12 -22 -8 -21 5 -21 6 -2 13 10 4 20 8 22 8 1 1 2 -5 2 -13z m-264 -25
c-3 -5 11 -12 31 -16 24 -4 32 -9 24 -15 -8 -4 -11 -13 -7 -19 5 -7 15 -6 34
6 l27 17 -29 -30 c-22 -23 -36 -29 -54 -26 -21 4 -23 7 -11 16 25 19 19 33
-12 28 -24 -4 -29 -1 -29 16 0 17 8 26 28 31 2 1 1 -3 -2 -8z m-34 -63 c-12
-12 -35 -1 -27 12 3 5 13 6 21 3 10 -4 12 -9 6 -15z m-42 -48 c0 -7 -6 -6 -15
4 -8 8 -15 20 -15 26 0 7 6 6 15 -4 8 -8 15 -20 15 -26z m-69 12 c-7 -13 -6
-23 2 -31 7 -7 12 -15 13 -19 0 -4 4 -15 8 -24 17 -37 -14 -74 -36 -43 -10 14
-10 27 0 21 4 -2 14 -1 20 3 10 6 9 11 -3 21 -13 11 -15 10 -10 -2 4 -9 0 -15
-10 -15 -8 0 -15 4 -15 9 0 4 -5 8 -11 8 -5 0 -7 -4 -4 -10 10 -16 -11 -12
-25 5 -7 8 -8 15 -2 15 5 0 12 9 15 20 3 11 13 23 24 27 10 3 22 12 26 20 12
20 19 16 8 -5z m119 -48 c0 -8 -5 -12 -11 -8 -8 4 -10 -6 -6 -35 4 -39 -4 -53
-18 -31 -3 5 0 10 7 11 7 0 4 4 -7 9 -11 5 -14 9 -6 9 10 1 11 4 2 14 -6 8 -8
16 -5 20 3 3 -4 3 -15 0 -17 -4 -20 -2 -15 11 8 22 74 22 74 0z m260 -7 c0 -7
-7 -22 -15 -33 -14 -18 -14 -17 -15 14 0 22 5 32 15 32 8 0 15 -6 15 -13z m81
-10 c-10 -9 -11 -8 -5 6 3 10 9 15 12 12 3 -3 0 -11 -7 -18z m-234 -10 c9 -6
10 -15 3 -27 -15 -28 -12 -39 10 -33 21 5 35 36 25 53 -3 6 1 7 10 4 17 -7 30
-47 21 -63 -4 -6 -32 -9 -64 -7 -52 2 -57 5 -55 24 2 13 -5 26 -17 32 -26 14
-25 28 3 32 25 4 46 -1 64 -15z m-156 -64 c38 -23 37 -33 -5 -33 -25 0 -35 5
-39 19 -9 34 3 38 44 14z m89 2 c0 -9 -6 -12 -16 -8 -13 5 -13 7 -2 14 17 11
18 11 18 -6z m246 -42 c-10 -10 -19 5 -10 18 6 11 8 11 12 0 2 -7 1 -15 -2
-18z m-198 3 c3 -3 -15 -6 -41 -6 -25 0 -48 4 -52 9 -6 10 83 7 93 -3z m92 -6
c0 -5 -12 -10 -27 -10 -22 0 -25 2 -13 10 20 13 40 13 40 0z m53 3 c-7 -2 -19
-2 -25 0 -7 3 -2 5 12 5 14 0 19 -2 13 -5z"/>
</g>
</svg>
